<svg width="89" height="89" viewBox="0 0 89 89" fill="none" xmlns="http://www.w3.org/2000/svg">
<g clip-path="url(#clip0_0_309)" filter="url(#filter0_i_0_309)">
<path d="M61.41 55.1632C74.4111 45.7542 80.8802 37.2728 84.0476 30.7061C85.8794 26.9091 86.5877 23.7832 86.8269 21.5389C86.9216 20.6588 86.946 19.7725 86.8998 18.8886C86.8814 18.5142 86.8403 18.1414 86.7766 17.7721C86.6103 16.9587 86.2519 16.5434 85.4816 16.0846C85.2608 15.9544 85.0347 15.8334 84.8038 15.722C84.0014 15.3334 83.172 15.0033 82.322 14.7343C80.1528 14.0475 76.9773 13.4136 72.7405 13.5117C65.4307 13.6711 55.0623 15.9739 41.3249 23.6529L30.2483 22.3375L30.2212 22.3315C27.5526 22.0468 24.8667 22.6808 22.607 24.1288L9.47237 32.5327C9.05595 32.8007 8.73403 33.1925 8.5519 33.653C8.36977 34.1135 8.33659 34.6195 8.45703 35.0998C8.57747 35.5802 8.84547 36.0107 9.22333 36.3308C9.60119 36.6508 10.0699 36.8444 10.5635 36.8842L19.3967 37.5486C20.7011 37.6469 22.0575 38.197 23.5784 39.096C24.5506 39.6703 25.3928 40.2539 26.2897 40.8684L27.1239 41.4455C27.1964 45.3262 28.5312 49.2389 30.6963 52.6291C32.8533 56.0127 35.8353 58.8773 39.32 60.5788L39.4892 61.5728C39.674 62.646 39.8482 63.6601 39.9594 64.7881C40.1308 66.5451 40.063 68.0126 39.6035 69.2374L36.4871 77.5488C36.3171 78.0127 36.2964 78.5182 36.428 78.9945C36.5596 79.4707 36.8369 79.8939 37.2211 80.2047C37.6052 80.5154 38.0769 80.6983 38.5702 80.7276C39.0634 80.7568 39.5535 80.6311 39.9717 80.3679L53.1063 71.964C55.3665 70.5206 57.0685 68.3432 57.9323 65.8009L61.41 55.1632ZM65.591 38.5663C61.1945 41.3857 55.917 40.9844 53.8127 37.6835C51.7095 34.378 53.5696 29.4221 57.965 26.6073C62.365 23.7934 67.638 24.1937 69.7422 27.4946C71.8465 30.7956 69.9909 35.7524 65.5955 38.5673L65.591 38.5663Z" fill="url(#paint0_linear_0_309)"/>
<path d="M28.7003 53.9034C30.5619 56.8612 32.8542 59.5249 35.5015 61.8065C29.4491 65.2411 11.2199 66.0567 10.7798 65.3677C10.3373 64.6686 18.2806 47.1821 24.2448 43.8039C25.1203 47.2649 26.6806 50.7348 28.7003 53.9034Z" fill="url(#paint1_linear_0_309)"/>
</g>
<defs>
<filter id="filter0_i_0_309" x="0" y="0" width="88.1995" height="93.1995" filterUnits="userSpaceOnUse" color-interpolation-filters="sRGB">
<feFlood flood-opacity="0" result="BackgroundImageFix"/>
<feBlend mode="normal" in="SourceGraphic" in2="BackgroundImageFix" result="shape"/>
<feColorMatrix in="SourceAlpha" type="matrix" values="0 0 0 0 0 0 0 0 0 0 0 0 0 0 0 0 0 0 127 0" result="hardAlpha"/>
<feOffset dy="5"/>
<feGaussianBlur stdDeviation="2.5"/>
<feComposite in2="hardAlpha" operator="arithmetic" k2="-1" k3="1"/>
<feColorMatrix type="matrix" values="0 0 0 0 1 0 0 0 0 1 0 0 0 0 1 0 0 0 0.39 0"/>
<feBlend mode="plus-lighter" in2="shape" result="effect1_innerShadow_0_309"/>
</filter>
<linearGradient id="paint0_linear_0_309" x1="52.0715" y1="7.96813" x2="36.1381" y2="80.2214" gradientUnits="userSpaceOnUse">
<stop stop-color="#E37D00"/>
<stop offset="1" stop-color="#F7DD59"/>
</linearGradient>
<linearGradient id="paint1_linear_0_309" x1="27.3245" y1="44.483" x2="22.155" y2="67.9255" gradientUnits="userSpaceOnUse">
<stop stop-color="#E37D00"/>
<stop offset="1" stop-color="#F7DD59"/>
</linearGradient>
<clipPath id="clip0_0_309">
<rect width="74" height="74" fill="white" transform="translate(15.9357) rotate(12.4359)"/>
</clipPath>
</defs>
</svg>
